<?xml version="1.0" encoding="utf-8"?>
<!-- Generator: Adobe Illustrator 25.3.1, SVG Export Plug-In . SVG Version: 6.00 Build 0)  -->
<svg version="1.1" id="Capa_1" xmlns="http://www.w3.org/2000/svg" xmlns:xlink="http://www.w3.org/1999/xlink" x="0px" y="0px"
	 viewBox="0 0 480 480" style="enable-background:new 0 0 480 480;" xml:space="preserve">
<style type="text/css">
	.st0{fill:#FFFFFF;}
</style>
<g>
	<path class="st0" d="M449.9,214.8c-1.5-1.5-3.1-2.9-4.9-4c-9.5-23.8-27.3-50.8-51.5-76C342.4,82,282.3,57.2,259,79.6
		c-23.2,22.4-0.8,83.4,50.2,136.3c9.7,10.1,19.8,19.2,29.9,27.1c-8.6,6.6-17.2,13.9-25.5,22c-52.9,51-77.6,111.1-55.2,134.4
		c22.4,23.2,83.4,0.8,136.3-50.2S472.3,238.1,449.9,214.8z"/>
	<g>
		<path d="M461.2,194.7l-128-128c-24.9-25-65.6-25-90.5,0C230.7,78.8,224,94.9,224,112s6.7,33.2,18.8,45.2l82.8,82.8l-82.8,82.8
			C230.7,334.8,224,350.9,224,368s6.7,33.2,18.8,45.2c12.1,12.1,28.2,18.8,45.2,18.8s33.2-6.7,45.2-18.8l128-128
			c12.1-12.1,18.8-28.2,18.8-45.2S473.3,206.8,461.2,194.7z M438.6,262.6l-128,128c-12.1,12.1-33.1,12.1-45.2,0
			c-12.5-12.5-12.5-32.8,0-45.2L370.8,240L265.4,134.6c-6-6-9.4-14.1-9.4-22.6s3.3-16.6,9.4-22.6c6.2-6.2,14.4-9.4,22.6-9.4
			s16.4,3.1,22.6,9.3l128,128c6,6.1,9.4,14.1,9.4,22.7S444.7,256.6,438.6,262.6z"/>
	</g>
</g>
<g>
	<path class="st0" d="M223.9,214.8c-1.5-1.5-3.1-2.9-4.9-4c-9.5-23.8-27.3-50.8-51.5-76C116.4,82,56.3,57.2,33,79.6
		C9.8,102,32.2,163.1,83.2,216c9.7,10.1,19.8,19.2,29.9,27.1c-8.6,6.6-17.2,13.9-25.5,22C34.7,316,9.9,376.2,32.3,399.5
		c22.4,23.2,83.4,0.8,136.3-50.2S246.3,238.1,223.9,214.8z"/>
	<g>
		<path d="M237.2,194.7l-128-128c-24.9-25-65.6-25-90.5,0C6.7,78.8,0,94.9,0,112s6.7,33.2,18.8,45.2l82.8,82.8l-82.8,82.8
			C6.7,334.8,0,350.9,0,368s6.7,33.2,18.8,45.2C30.8,425.3,46.9,432,64,432s33.2-6.7,45.2-18.8l128-128
			c12.1-12.1,18.8-28.2,18.8-45.2S249.3,206.8,237.2,194.7z M214.6,262.6l-128,128c-12.1,12.1-33.1,12.1-45.2,0
			c-12.5-12.5-12.5-32.8,0-45.2L146.8,240L41.4,134.6c-6-6-9.4-14.1-9.4-22.6s3.3-16.6,9.4-22.6C47.6,83.1,55.8,80,64,80
			s16.4,3.1,22.6,9.3l128,128c6,6.1,9.4,14.1,9.4,22.7S220.7,256.6,214.6,262.6z"/>
	</g>
</g>
</svg>
