<svg id="Capa_1" data-name="Capa 1" xmlns="http://www.w3.org/2000/svg" viewBox="0 0 50.24 92.01"><defs><style>.cls-1{fill:#fff;}</style></defs><path class="cls-1" d="M43.12,21.67A10.84,10.84,0,1,0,32.28,10.84,10.84,10.84,0,0,0,43.12,21.67Z" transform="translate(-20.89 0)"/><path class="cls-1" d="M70.43,1.84A2.77,2.77,0,0,0,68.34.92H67a3.33,3.33,0,0,0-3.22,2.87L62,19.24A2.33,2.33,0,0,1,60.55,21L49.91,24.22H33.39a3.88,3.88,0,0,0-3.54,2.62L21,56a2.4,2.4,0,0,0,2.38,3.2h2.25a3.86,3.86,0,0,0,3.53-2.62l2.53-8.35V87a5,5,0,0,0,5,5h.36a5,5,0,0,0,5-5V60.84h2.12V87a5,5,0,0,0,5,5h.35a5,5,0,0,0,5-5V31.62l11.56-4.24a4.58,4.58,0,0,0,2.76-3.5L71.1,4A2.8,2.8,0,0,0,70.43,1.84Z" transform="translate(-20.89 0)"/></svg>