<svg id="Icons" xmlns="http://www.w3.org/2000/svg" viewBox="0 0 484.32 484.32"><defs><style>.cls-1{fill:#2196f3;}</style></defs><path class="cls-1" d="M477.41,498.16H34.59a20.75,20.75,0,0,1-20.75-20.75V400.47a6.92,6.92,0,1,1,13.84,0v76.94a6.91,6.91,0,0,0,6.91,6.91H477.41a6.91,6.91,0,0,0,6.91-6.91V34.59a6.91,6.91,0,0,0-6.91-6.91H34.59a6.91,6.91,0,0,0-6.91,6.91v179.9a6.92,6.92,0,0,1-13.84,0V34.59A20.75,20.75,0,0,1,34.59,13.84H477.41a20.75,20.75,0,0,1,20.75,20.75V477.41A20.75,20.75,0,0,1,477.41,498.16Z" transform="translate(-13.84 -13.84)"/><path class="cls-1" d="M20.76,358.88A6.91,6.91,0,0,1,13.84,352V331.69a6.92,6.92,0,0,1,13.84,0V352A6.91,6.91,0,0,1,20.76,358.88Z" transform="translate(-13.84 -13.84)"/><path class="cls-1" d="M20.76,290.18a6.92,6.92,0,0,1-6.92-6.92V262.92a6.92,6.92,0,0,1,13.84,0v20.34A6.92,6.92,0,0,1,20.76,290.18Z" transform="translate(-13.84 -13.84)"/><path class="cls-1" d="M491.24,131.46H20.76a6.92,6.92,0,1,1,0-13.84H491.24a6.92,6.92,0,1,1,0,13.84Z" transform="translate(-13.84 -13.84)"/><path class="cls-1" d="M430.65,98.61a26,26,0,1,1,26-26A26,26,0,0,1,430.65,98.61Zm0-38.06a12.13,12.13,0,1,0,12.16,12.1,12.12,12.12,0,0,0-12.16-12.1h0Z" transform="translate(-13.84 -13.84)"/><path class="cls-1" d="M360.07,98.61a26,26,0,1,1,26-26h0A26,26,0,0,1,360.07,98.61Zm0-38.06a12.13,12.13,0,1,0,12.12,12.13v0a12.14,12.14,0,0,0-12.12-12.12Z" transform="translate(-13.84 -13.84)"/><path class="cls-1" d="M289.49,98.61a26,26,0,1,1,26-26h0A26,26,0,0,1,289.49,98.61Zm0-38.06a12.13,12.13,0,1,0,12.12,12.13v0a12.14,12.14,0,0,0-12.12-12.12Z" transform="translate(-13.84 -13.84)"/><path class="cls-1" d="M227.63,79.57H62.3a6.92,6.92,0,0,1,0-13.84H227.63a6.92,6.92,0,1,1,0,13.84Z" transform="translate(-13.84 -13.84)"/><path class="cls-1" d="M319.75,353.49a6.92,6.92,0,0,1-4.49-12.19L362.66,301l-47.4-40.33a6.93,6.93,0,1,1,9-10.54l53.59,45.6a6.91,6.91,0,0,1,.79,9.75,7.46,7.46,0,0,1-.79.8l-53.59,45.6A6.9,6.9,0,0,1,319.75,353.49Z" transform="translate(-13.84 -13.84)"/><path class="cls-1" d="M192.25,353.49a6.93,6.93,0,0,1-4.48-1.64l-53.59-45.6a6.92,6.92,0,0,1-.79-9.76,6.55,6.55,0,0,1,.79-.79l53.59-45.6a6.93,6.93,0,1,1,9,10.54L149.34,301l47.4,40.33a6.92,6.92,0,0,1-4.49,12.19Z" transform="translate(-13.84 -13.84)"/><path class="cls-1" d="M218.78,408.22a7,7,0,0,1-2.4-.43,6.92,6.92,0,0,1-4.08-8.9h0l74.43-200.65a6.92,6.92,0,0,1,13,4.84L225.27,403.73a6.93,6.93,0,0,1-6.49,4.49Z" transform="translate(-13.84 -13.84)"/></svg>