<svg id="Layer_1" data-name="Layer 1" xmlns="http://www.w3.org/2000/svg" viewBox="0 0 370 325.2"><defs><style>.cls-1{fill:#2196f3;}</style></defs><path class="cls-1" d="M223.48,255.24h65v21.68h-65Z" transform="translate(-71 -81.8)"/><path class="cls-1" d="M371.18,276.92h-61v10.84a10.84,10.84,0,0,1-10.84,10.84H212.64a10.84,10.84,0,0,1-10.84-10.84V276.92h-61A32.46,32.46,0,0,1,110,254.69L71,137.75V374.48A32.56,32.56,0,0,0,103.52,407h305A32.56,32.56,0,0,0,441,374.48V137.75L402,254.69A32.46,32.46,0,0,1,371.18,276.92Z" transform="translate(-71 -81.8)"/><path class="cls-1" d="M299.36,81.8H212.64a32.56,32.56,0,0,0-32.52,32.52v10.84H89.65l40.88,122.67a10.84,10.84,0,0,0,10.29,7.41h61V244.4a10.84,10.84,0,0,1,10.84-10.84h86.72A10.84,10.84,0,0,1,310.2,244.4v10.84h61a10.84,10.84,0,0,0,10.29-7.41l40.88-122.67H331.88V114.32A32.56,32.56,0,0,0,299.36,81.8ZM201.8,125.16V114.32a10.85,10.85,0,0,1,10.84-10.84h86.72a10.85,10.85,0,0,1,10.84,10.84v10.84Z" transform="translate(-71 -81.8)"/></svg>