<svg id="Capa_1" data-name="Capa 1" xmlns="http://www.w3.org/2000/svg" viewBox="0 0 262.47 491.53"><defs><style>.cls-1{fill:#2196f3;}</style></defs><path class="cls-1" d="M124.79,274.57c0,.18,0,.37,0,.55s.05.5.09.75,0,.31.07.46.13.58.2.87c0,.1,0,.21.08.32.11.36.23.71.37,1.05a.49.49,0,0,1,0,.11,11.28,11.28,0,0,0,.56,1.16l119.3,218.32a11.93,11.93,0,0,0,20.94,0l119.3-218.32a11.28,11.28,0,0,0,.56-1.16.49.49,0,0,1,0-.11c.14-.35.26-.69.37-1.05,0-.11.05-.22.08-.33a8.26,8.26,0,0,0,.2-.86c0-.15.05-.3.07-.46s.07-.5.1-.75,0-.37,0-.55,0-.3,0-.45,0-.16,0-.24,0-.37,0-.56,0-.47-.07-.71-.05-.32-.07-.49-.1-.51-.16-.76-.07-.29-.11-.43-.16-.54-.25-.8a2,2,0,0,1-.07-.23l-43-114a36.06,36.06,0,0,0,9.45-6.78,35.79,35.79,0,0,0-13.38-59V24.77a11.93,11.93,0,0,0-11.93-11.93H184.42a11.93,11.93,0,0,0-11.93,11.93V90a35.8,35.8,0,0,0-3.92,65.84l-43,114a2,2,0,0,1-.07.23c-.09.26-.18.53-.25.8s-.08.29-.11.43-.11.5-.16.76,0,.33-.07.49-.05.47-.07.71,0,.38,0,.56,0,.16,0,.24ZM256,286.05a11.93,11.93,0,1,1,11.93-11.93A11.95,11.95,0,0,1,256,286.05ZM196.35,36.7h119.3V88H196.35ZM176,115.36a11.85,11.85,0,0,1,8.44-3.5H327.58a11.93,11.93,0,0,1,0,23.86H184.38a11.93,11.93,0,0,1-8.4-20.36Zm16.69,44.22H319.33l38.72,102.61H327.58a11.93,11.93,0,0,0,0,23.86h27.61L267.93,445.73V307.86a35.79,35.79,0,1,0-23.86,0V445.73L156.81,286.05h27.61a11.93,11.93,0,0,0,0-23.86H154Z" transform="translate(-124.76 -12.84)"/></svg>