<svg height="512pt" viewBox="-83 0 512 512.00003" width="512pt" xmlns="http://www.w3.org/2000/svg"><path d="m162.195312 469.332031 7.25 17.066407 1.792969 4.183593c1.894531 7.59375 8.730469 12.914063 16.554688 12.882813h76.800781c0-12.199219-15.53125-20.5625-31.828125-25.855469h-.085937c-11.851563-3.820313-24.015626-6.589844-36.351563-8.277344zm0 0" fill="#ff9401"/><path d="m169.445312 486.398438c-51.308593 1.707031-100.332031 1.296874-130.480468.753906-2.023438-.101563-3.699219-1.609375-4.007813-3.609375-.3125-2 .828125-3.945313 2.726563-4.652344 64.855468-24.421875 79.863281-90.675781 80.394531-163.15625.597656-66.476563-10.925781-138.15625-7.085937-187.734375 8.535156-110.933594 42.667968-119.464844 85.335937-119.464844 25.792969 1.0625 48.671875 16.867188 58.792969 40.617188.238281.644531.617187 1.230468 1.109375 1.707031.660156.457031 1.421875.75 2.21875.851563 13.398437 2.644531 26.878906 5.378906 40.277343 8.023437 42.667969 8.53125 34.132813 25.597656 34.132813 25.597656-10.410156-1.136719-20.820313-1.820312-31.230469-2.046875-19.03125-.425781-44.714844-4.691406-56.320312 14.59375-9.898438 16.554688-1.535156 32.082032 12.03125 43.347656 29.519531 24.390626 51.386718 56.773438 62.976562 93.269532 8.851563 26.292968 14.414063 53.578125 16.554688 81.238281 1.761718 22.113281-.113282 44.367187-5.546875 65.875-9.8125 38.476563-36.644531 70.367187-72.875 86.613281-8.3125 3.773438-16.898438 6.910156-25.683594 9.386719h-.085937zm0 0" fill="#37474f"/><path d="m331.324219 381.609375c-9.8125 38.476563-36.644531 70.367187-72.875 86.613281-8.3125 3.773438-16.898438 6.910156-25.683594 9.386719h-.085937c-3.667969-1.195313-7.339844-2.300781-10.835938-3.242187-8.398438-2.179688-16.917969-3.863282-25.515625-5.035157 0 0-34.132813-51.199219 8.53125-68.265625 30.550781-12.203125 30.464844-59.5625 27.992187-85.332031-.589843-5.433594-1.53125-10.820313-2.816406-16.128906 3.410156-62.207031-25.175781-128.9375-25.175781-128.9375-14.078125-42.15625 1.109375-61.101563 17.496094-69.460938 7.933593-3.949219 16.582031-6.269531 25.425781-6.828125-.917969 1.09375-1.746094 2.265625-2.472656 3.5-9.898438 16.554688-1.535156 32.082032 12.03125 43.347656 29.519531 24.390626 51.386718 56.773438 62.976562 93.269532 8.851563 26.292968 14.414063 53.578125 16.554688 81.238281 1.761718 22.113281-.113282 44.367187-5.546875 65.875zm0 0" fill="#607d87"/><path d="m310.078125 381.609375c-9.8125 38.476563-36.648437 70.367187-72.875 86.613281-5.035156 2.304688-10.15625 4.351563-15.359375 6.144532-8.398438-2.179688-16.917969-3.863282-25.515625-5.035157 0 0-34.132813-51.199219 8.53125-68.265625 30.550781-12.203125 30.464844-59.5625 27.992187-85.332031-.589843-5.433594-1.53125-10.820313-2.816406-16.128906 3.410156-62.207031-25.175781-128.9375-25.175781-128.9375-14.078125-42.15625 1.109375-61.101563 17.496094-69.460938-7.085938 15.273438 1.109375 29.523438 13.738281 40.019531 29.519531 24.390626 51.382812 56.773438 62.976562 93.269532 8.851563 26.292968 14.410157 53.578125 16.554688 81.238281 1.757812 22.113281-.113281 44.367187-5.546875 65.875zm0 0" fill="#cbd4d8"/><path d="m332.859375 85.332031c-10.410156-1.136719-20.820313-1.820312-31.230469-2.046875-13.226562-.253906-29.78125-2.472656-42.496094 2.816406 1.066407-11.566406.550782-23.222656-1.535156-34.644531.269532.125.558594.210938.851563.253907 13.398437 2.644531 26.878906 5.378906 40.277343 8.023437 42.667969 8.53125 34.132813 25.597656 34.132813 25.597656zm0 0" fill="#f29c1f"/><path d="m332.859375 85.332031c-10.410156-1.136719-20.820313-1.820312-31.230469-2.046875-13.226562-.253906-29.78125-2.472656-42.496094 2.816406 1.066407-11.566406.550782-23.222656-1.535156-34.644531.269532.125.558594.210938.851563.253907 13.398437 2.644531 26.878906 5.378906 40.277343 8.023437 42.667969 8.53125 34.132813 25.597656 34.132813 25.597656zm0 0" fill="#ff9401"/><path d="m111.675781 119.980469c1.363281-17.636719 4.304688-35.117188 8.789063-52.226563 6.316406-3.496094 42.496094-21.332031 50.261718 17.578125 8.449219 42.410157-25.171874 59.480469-59.050781 34.648438zm0 0" fill="#fabd08"/><path d="m213.394531 51.199219c0 9.425781-7.640625 17.066406-17.066406 17.066406s-17.066406-7.640625-17.066406-17.066406 7.640625-17.066407 17.066406-17.066407 17.066406 7.640626 17.066406 17.066407zm0 0" fill="#fff"/><path d="m196.328125 42.667969c-.019531 4.007812-2.824219 7.460937-6.742187 8.304687-3.917969.839844-7.894532-1.160156-9.558594-4.808594 1.695312-5.363281 5.898437-9.566406 11.265625-11.261718 3.058593 1.375 5.027343 4.410156 5.035156 7.765625zm0 0" fill="#fff"/><path d="m339.578125 383.796875c5.664063-22.402344 7.628906-45.578125 5.808594-68.609375-2.1875-28.375-7.886719-56.367188-16.964844-83.335938-12.019531-38.0625-34.816406-71.824218-65.628906-97.195312-13.097657-10.871094-16.511719-21.769531-10.171875-32.375 6.894531-11.460938 21.230468-11.699219 40.671875-10.785156 2.804687.136718 5.535156.261718 8.121093.3125 10.128907.257812 20.414063.933594 30.542969 2.015625 3.535157.355469 6.925781-1.503907 8.53125-4.675781 2.277344-5.175782 2.101563-11.097657-.476562-16.128907-5.007813-10.238281-17.972657-17.324219-39.636719-21.65625l-38.402344-7.679687c-11.789062-25.867188-37.234375-42.796875-65.644531-43.683594-54.511719 0-85.605469 20.292969-93.867187 127.34375-1.273438 32.214844-.3125 64.480469 2.875 96.5625 2.195312 30.234375 4.453124 61.5 4.183593 91.765625-.734375 101.191406-32.285156 151.238281-102.28125 162.296875-4.363281.671875-7.496093 4.558594-7.222656 8.964844.277344 4.40625 3.867187 7.875 8.28125 8 .511719 0 35.121094 1.203125 82.609375 1.203125 22.1875 0 47.230469-.28125 72.882812-1.042969 3.613282 10.152344 13.230469 16.921875 24.003907 16.90625h76.800781c4.714844 0 8.535156-3.820312 8.535156-8.535156-.785156-10.855469-7.429687-20.417969-17.332031-24.941406 2.0625-.851563 4.164063-1.613282 6.1875-2.558594 38.59375-17.242188 67.179687-51.199219 77.59375-92.167969zm-87.65625-235.984375c28.308594 23.316406 49.25 54.34375 60.28125 89.320312 8.628906 25.628907 14.058594 52.226563 16.160156 79.1875 1.691407 21.199219-.09375 42.527344-5.289062 63.148438-9.132813 36.003906-34.242188 65.847656-68.148438 81.007812-7.199219 3.246094-14.613281 5.992188-22.1875 8.226563-10.222656-3.15625-20.660156-5.570313-31.230469-7.21875-4.898437-8.535156-12.375-25.601563-8.535156-38.085937 2.457032-6.894532 8.023438-12.226563 15.019532-14.378907 35.488281-14.183593 36.105468-65.023437 33.28125-94.105469-1.050782-10.539062-2.457032-17.605468-2.5625-17.921874v-.09375c2.40625-61.96875-24.445313-125.746094-25.828126-128.929688-7.375-22.117188-7.09375-38.945312.851563-50.03125 4.953125-6.402344 11.867187-11.003906 19.6875-13.097656-3.429687 14.789062 2.816406 29.988281 18.5 42.972656zm-124.1875-74.160156c7.5-4.203125 16.347656-5.304688 24.644531-3.066406 5.769532 3.574218 9.476563 9.6875 9.976563 16.453124 3.082031 15.480469 0 27.460938-8.53125 32.886719-8.289063 5.285157-20.710938 3.621094-33.128907-4.164062 1.324219-14.1875 3.675782-28.261719 7.039063-42.109375zm60.058594 421.28125c-3.902344.027344-7.316407-2.617188-8.269531-6.398438-.113282-.449218-.261719-.882812-.441407-1.308594l-1.828125-4.265624-.09375-.214844-7.117187-16.714844c-1.921875-4.207031-6.84375-6.113281-11.097657-4.308594-4.253906 1.808594-6.296874 6.679688-4.601562 10.980469l2.363281 5.566406c-36.925781.980469-72.117187.960938-98.894531.648438 59.847656-33.613281 68.386719-106.601563 68.796875-163.074219.273437-30.949219-2.003906-62.566406-4.222656-93.140625-2.78125-29.40625-3.84375-58.953125-3.191407-88.480469 7.261719 3.609375 15.226563 5.589844 23.335938 5.800782 7.234375.105468 14.347656-1.882813 20.480469-5.71875 14.507812-9.273438 20.574219-28.160157 16.105469-50.609376-1.371094-12.167968-8.691407-22.867187-19.535157-28.554687-7.984375-3.339844-16.851562-3.9375-25.214843-1.703125 15.257812-36.371094 38.921874-36.371094 61.960937-36.371094 22.390625.976563 42.222656 14.761719 50.933594 35.414063.734375 1.867187 1.902343 3.527343 3.414062 4.847656 1.769531 1.433594 3.878907 2.382813 6.128907 2.753906l40.214843 8.015625c7.757813 1.25 15.253907 3.773438 22.1875 7.472656-5.820312-.402343-11.628906-.6875-17.433593-.851562-2.472657-.0625-5.058594-.179688-7.679688-.300781-15.582031-.75-36.019531-1.652344-49.597656 11.019531-17.339844.8125-33.519532 8.957031-44.5 22.40625-11.375 15.777344-12.464844 37.8125-2.984375 66.152344.492187 1.152344 48.917969 116.195312 9.136719 179.847656-5.042969 8.070312-7.933594 8.984375-7.894532 9.054688-11.578125-4.039063-24.445312-78.0625-27.542968-158.464844-.183594-4.714844-4.152344-8.386719-8.867188-8.199219-4.710938.183594-8.382812 4.152344-8.199219 8.863281 1.910157 49.691406 9.648438 166.160156 40.199219 174.292969 1.410156.382813 2.867188.578125 4.328125.582031 7.804687 0 15.359375-5.726562 22.433594-17.066406 1.058593-1.707031 2.003906-3.414062 2.953125-5.164062-2.5625 15.601562-8.707032 30.113281-21.898438 35.378906-11.820312 4-21.074218 13.324218-24.976562 25.175781-7.75 24.941406 11.691406 54.507813 12.519531 55.753906 1.378906 2.066407 3.585937 3.425781 6.050781 3.730469 11.761719 1.621094 23.363282 4.265625 34.667969 7.902344.226563.078125.457031.140625.691406.195312 6.832031 2.050782 13.324219 5.101563 19.261719 9.054688zm0 0"/><path d="m204.859375 51.199219c0 4.714843-3.820313 8.535156-8.53125 8.535156-4.714844 0-8.535156-3.820313-8.535156-8.535156 0-4.710938 3.820312-8.53125 8.535156-8.53125 4.710937 0 8.53125 3.820312 8.53125 8.53125zm0 0"/></svg>