<svg id="line_icons" data-name="line icons" xmlns="http://www.w3.org/2000/svg" viewBox="0 0 484.32 470.86"><defs><style>.cls-1{fill:#2196f3;}</style></defs><path class="cls-1" d="M463.08,399.78H48.92A35.12,35.12,0,0,1,13.84,364.7v-309A35.13,35.13,0,0,1,48.92,20.57H463.08a35.13,35.13,0,0,1,35.08,35.09v309A35.12,35.12,0,0,1,463.08,399.78ZM48.92,34.41A21.26,21.26,0,0,0,27.68,55.66v309a21.25,21.25,0,0,0,21.24,21.24H463.08a21.25,21.25,0,0,0,21.24-21.24v-309a21.26,21.26,0,0,0-21.24-21.25Z" transform="translate(-13.84 -20.57)"/><path class="cls-1" d="M491.24,304.52H20.76a6.92,6.92,0,0,1,0-13.84H491.24a6.92,6.92,0,1,1,0,13.84Z" transform="translate(-13.84 -20.57)"/><path class="cls-1" d="M334.14,461.39H177.86a6.92,6.92,0,0,1-6.92-6.92,6.27,6.27,0,0,1,.19-1.61l14.75-61.58a6.93,6.93,0,0,1,6.73-5.31H319.39a6.93,6.93,0,0,1,6.73,5.31l14.75,61.58a6.92,6.92,0,0,1-5.11,8.34A7.32,7.32,0,0,1,334.14,461.39ZM186.63,447.55H325.37l-11.44-47.74H198.07Z" transform="translate(-13.84 -20.57)"/><path class="cls-1" d="M346,491.43H166.09a21.94,21.94,0,0,1,0-43.88H346a21.94,21.94,0,0,1,0,43.88Zm-179.83-30a8.1,8.1,0,0,0,0,16.2H346a8.1,8.1,0,1,0,0-16.2Z" transform="translate(-13.84 -20.57)"/><path class="cls-1" d="M256,366.54a23.42,23.42,0,1,1,23.42-23.42h0A23.45,23.45,0,0,1,256,366.54Zm0-33a9.59,9.59,0,1,0,9.58,9.59h0A9.6,9.6,0,0,0,256,333.53Z" transform="translate(-13.84 -20.57)"/><path class="cls-1" d="M256,272.83c-30.7,0-54.75-48.62-54.75-110.7S225.3,51.43,256,51.43s54.75,48.62,54.75,110.7S286.7,272.83,256,272.83Zm0-211c-24.05,0-44.37,45.94-44.37,100.32S232,262.46,256,262.46s44.37-45.95,44.37-100.33S280.05,61.81,256,61.81Z" transform="translate(-13.84 -20.57)"/><path class="cls-1" d="M200.91,235.33c-19.08,0-33.87-5.86-40.78-17.85-7.69-13.3-4.32-31.54,9.47-51.36a185.68,185.68,0,0,1,59-51.4c53.77-31,107.94-34.52,123.25-7.94s-14.74,71.73-68.5,102.77a173.93,173.93,0,0,1-82.46,25.78ZM311.61,99.26a166.71,166.71,0,0,0-77.79,24.44,175.12,175.12,0,0,0-55.69,48.35c-11.2,16.09-14.48,30.76-9,40.24,12,20.82,62,15.46,109.08-11.76s76.71-67.76,64.7-88.56c-5-8.57-16.35-12.71-31.32-12.71Z" transform="translate(-13.84 -20.57)"/><path class="cls-1" d="M311.09,235.33a174,174,0,0,1-82.47-25.78,185.71,185.71,0,0,1-59-51.41c-13.79-19.82-17.16-38.06-9.47-51.36,15.35-26.59,69.49-23.11,123.25,7.94s83.84,76.17,68.5,102.76C345,229.46,330.16,235.33,311.09,235.33ZM200.39,99.26c-15,0-26.34,4.15-31.29,12.71-5.47,9.48-2.19,24.15,9,40.24a175.12,175.12,0,0,0,55.69,48.35c47.1,27.19,97,32.56,109.08,11.76s-17.61-61.4-64.7-88.56a166.71,166.71,0,0,0-77.76-24.5Z" transform="translate(-13.84 -20.57)"/><path class="cls-1" d="M256,192.53a30.4,30.4,0,1,1,30.44-30.4A30.4,30.4,0,0,1,256,192.53Zm0-50.42a20,20,0,1,0,20.06,20,20,20,0,0,0-20.06-20Z" transform="translate(-13.84 -20.57)"/></svg>