<svg id="Capa_1" data-name="Capa 1" xmlns="http://www.w3.org/2000/svg" viewBox="0 0 512 512"><defs><style>.cls-1{fill:#2196f3;}</style></defs><rect class="cls-1" x="405.92" y="406" width="15" height="15"/><rect class="cls-1" x="380.92" y="406" width="15" height="15"/><rect class="cls-1" x="330.92" y="406" width="15" height="15"/><rect class="cls-1" x="355.92" y="406" width="15" height="15"/><rect class="cls-1" x="405.92" y="380.17" width="15" height="15"/><rect class="cls-1" x="380.92" y="380.17" width="15" height="15"/><rect class="cls-1" x="330.92" y="380.17" width="15" height="15"/><rect class="cls-1" x="355.92" y="380.17" width="15" height="15"/><rect class="cls-1" x="228" y="200" width="15" height="15"/><rect class="cls-1" x="253" y="200" width="15" height="15"/><rect class="cls-1" x="203" y="200" width="15" height="15"/><path class="cls-1" d="M512,119.67V77.33H461V51H434.67V0H392.33V51H371.67V0H329.33V51H308.67V0H266.33V51H245.67V0H203.33V51.09H182.67V0H140.33V51.07H119.67V0H77.33V51.05H51V77.33H0v42.34H51v20.66H0v42.34H51v20.66H0v42.34H51v20.66H0v42.34H51v20.66H0v42.34H51v20.66H0v42.34H51v26.24H77.33V512h42.34V460.92h20.66V512h42.34V460.93h20.66V512h42.34V460.93h20.66V512h42.34V460.94h20.66V512h42.34V461h20.66V512h42.34V461H461V434.67h51V392.33H461v-2.58l-15-.05V446H66V66H446V374.75l15,.05v-3.13h51V329.33H461V308.67h51V266.33H461V245.67h51V203.33H461V182.67h51V140.33H461V119.67ZM461,92.33h36v12.34H461ZM51,104.67H15V92.33H51Zm0,63H15V155.33H51Zm0,63H15V218.33H51Zm0,63H15V281.33H51Zm0,63H15V344.33H51Zm0,63H15V407.33H51ZM461,407.33h36v12.34H461ZM407.33,461h12.34v36H407.33Zm-63,0h12.34v36H344.33Zm-63,0h12.34v36H281.33Zm-63,0h12.34v36H218.33V461Zm-63,0h12.34v36H155.33V461Zm-63,0h12.34v36H92.33ZM104.67,51H92.33V15h12.34Zm63,0H155.33V15h12.34V51Zm63,0H218.33V15h12.34V51Zm63,0H281.33V15h12.34Zm63,0H344.33V15h12.34Zm63,0H407.33V15h12.34ZM461,344.33h36v12.34H461Zm0-63h36v12.34H461Zm0-63h36v12.34H461Zm0-63h36v12.34H461Z" transform="translate(0 0)"/><path class="cls-1" d="M355.05,234.5v-15h-18v-14l18,0v-15h-18V174.91H321.5V157l-15-.05v18h-14V157l-15-.05v18h-14V157l-15-.05v18h-14V157l-15-.05v18h-14V157l-15-.05v18H174.91V190.5H157L157,205.45l18,0v14H157L157,234.45l18,0v14H157L157,263.45l18,0v14H157L157,292.45l18,0v14H157L157,321.45l18,0v15.6H190.5V355l15,.05v-18h14V355l15,.05v-18h14V355l15,.05v-18h14V355l15,.05v-18h14V355l15,.05v-18h15.59V321.46l18,0v-15h-18v-14l18,0v-15h-18v-14l18,0v-15h-18v-14ZM189.91,322.09V189.91H322.09V322.09Z" transform="translate(0 0)"/><rect class="cls-1" x="293.67" y="260.08" width="15" height="42"/><rect class="cls-1" x="293.67" y="210.08" width="15" height="15"/><rect class="cls-1" x="293.67" y="235.08" width="15" height="15"/><polygon class="cls-1" points="204.28 309.53 238.22 309.58 238.22 294.58 204.33 294.58 204.28 309.53"/><rect class="cls-1" x="261.84" y="91" width="15" height="15"/><rect class="cls-1" x="236.84" y="91" width="15" height="15"/><rect class="cls-1" x="286.84" y="91" width="135.5" height="15"/><polygon class="cls-1" points="147.05 219.5 116 219.5 116 154 77.83 154 77.78 169 101 169 101 234.45 147.05 234.5 147.05 219.5"/><polygon class="cls-1" points="147.05 190.55 139.5 190.5 139.5 91 77.83 91 77.78 106 124.5 106 124.5 205.45 147.05 205.5 147.05 190.55"/><polygon class="cls-1" points="86.83 248.5 86.83 280 77.83 280 77.78 295 101.83 295 101.83 263.5 147 263.5 147.05 248.55 86.83 248.5"/><polygon class="cls-1" points="147.05 277.55 107 277.5 107 343 77.83 343 77.78 357.95 122 358 122 292.5 147 292.5 147.05 277.55"/><polygon class="cls-1" points="77.83 406 77.83 421 141.83 421 141.83 321.5 147 321.5 147 306.5 126.83 306.5 126.83 406 77.83 406"/><rect class="cls-1" x="185.67" y="406" width="56.67" height="15"/><rect class="cls-1" x="277.33" y="406" width="15" height="15"/><rect class="cls-1" x="252.33" y="406" width="15" height="15"/><path class="cls-1" d="M428,134.17H379.5v48.5H428Zm-15,33.5H394.5v-18.5H413Z" transform="translate(0 0)"/><path class="cls-1" d="M428,190.5H379.5V239H428ZM413,224H394.5V205.5H413Z" transform="translate(0 0)"/><polygon class="cls-1" points="421 278.08 406 278.03 406 341.08 421 341.13 421 278.08"/></svg>