<svg id="Layer_1" data-name="Layer 1" xmlns="http://www.w3.org/2000/svg" viewBox="0 0 512 480"><defs><style>.cls-1{fill:#2196f3;}</style></defs><path class="cls-1" d="M217.51,349.65a8.43,8.43,0,0,1,6.49,8.21V451.2a34.14,34.14,0,0,1-68.27,0v-1.65c0-10.14-8.29-18.78-18.43-18.61a18.15,18.15,0,0,0-17.83,18.13v9.82c0,20.36-16.66,37.45-37,37.1a36.42,36.42,0,0,1-35.77-36.37V422.18a8.53,8.53,0,0,1,17.06,0v37.43a19.35,19.35,0,0,0,20.08,19.3c10.45-.39,18.57-9.32,18.57-19.78v-9.37c0-19.7,16.12-36.24,35.82-35.9a35.24,35.24,0,0,1,34.58,35.2v1.63c0,9.18,7,17.09,16.2,17.55a17.1,17.1,0,0,0,17.93-17.05V357.81a8.44,8.44,0,0,1,10.58-8.16Z" transform="translate(0 -16)"/><path class="cls-1" d="M329.61,262.49a8.53,8.53,0,0,1,11.72,7.92v25.95a25.56,25.56,0,0,1-13.48,22.56,151.41,151.41,0,0,1-143.79,0,25.54,25.54,0,0,1-13.39-22.51v-26a8.53,8.53,0,0,1,11.72-7.92l56.17,22.7a46.36,46.36,0,0,0,34.88,0Z" transform="translate(0 -16)"/><path class="cls-1" d="M358.74,232.32,267,269.37a29.24,29.24,0,0,1-22.08,0l-91.7-37.05c-18-7.3-18-32.81,0-40.11l91.7-37a29.2,29.2,0,0,1,22.08,0l91.7,37c18,7.3,18,32.81,0,40.11Z" transform="translate(0 -16)"/><path class="cls-1" d="M450.12,199.46a8.41,8.41,0,0,1-8.54-7.1C427.84,102.29,349.86,33.07,256,33.07S84.16,102.29,70.42,192.36a8.54,8.54,0,0,1-16.87-2.6C68.55,91.51,153.63,16,256,16S443.45,91.51,458.45,189.76a8.43,8.43,0,0,1-8.33,9.7Z" transform="translate(0 -16)"/><path class="cls-1" d="M64,225.25V388.08a8.55,8.55,0,0,1-9.29,8.51A59.74,59.74,0,0,1,0,337.07v-60.8a59.74,59.74,0,0,1,54.71-59.53A8.56,8.56,0,0,1,64,225.25Z" transform="translate(0 -16)"/><path class="cls-1" d="M120.53,259.2v94.93a42.72,42.72,0,0,1-27.92,40,8.55,8.55,0,0,1-11.54-8v-159a8.55,8.55,0,0,1,11.54-8A42.72,42.72,0,0,1,120.53,259.2Z" transform="translate(0 -16)"/><path class="cls-1" d="M448,225.25V388.08a8.55,8.55,0,0,0,9.29,8.51A59.74,59.74,0,0,0,512,337.07v-60.8a59.74,59.74,0,0,0-54.71-59.53A8.56,8.56,0,0,0,448,225.25Z" transform="translate(0 -16)"/><path class="cls-1" d="M391.47,259.2v94.93a42.72,42.72,0,0,0,27.92,40,8.55,8.55,0,0,0,11.54-8v-159a8.55,8.55,0,0,0-11.54-8A42.72,42.72,0,0,0,391.47,259.2Z" transform="translate(0 -16)"/></svg>