<svg id="Layer_1" data-name="Layer 1" xmlns="http://www.w3.org/2000/svg" viewBox="0 0 600 600"><defs><style>.cls-1{fill:#fff;fill-rule:evenodd;}</style></defs><path class="cls-1" d="M526.69,120.94A73.35,73.35,0,0,1,600,194.25V647.64a73.34,73.34,0,0,1-73.31,73.3H401.93V494.87h78l14.85-96.82H401.93V335.22c0-26.49,13-52.31,54.58-52.31h42.24V200.48s-38.33-6.54-75-6.54c-76.51,0-126.51,46.37-126.51,130.32v73.79h-85v96.82h85V720.94H73.31A73.34,73.34,0,0,1,0,647.64V194.25a73.35,73.35,0,0,1,73.31-73.31Z" transform="translate(0 -120.94)"/></svg>