<svg id="Layer_1" data-name="Layer 1" xmlns="http://www.w3.org/2000/svg" viewBox="0 0 600 600"><defs><style>.cls-1{fill:#fff;fill-rule:evenodd;}</style></defs><path class="cls-1" d="M526.69,120.94A73.35,73.35,0,0,1,600,194.25V647.64a73.34,73.34,0,0,1-73.31,73.3H73.31A73.34,73.34,0,0,1,0,647.64V194.25a73.35,73.35,0,0,1,73.31-73.31ZM229.12,618.46c159.31,0,246.41-132,246.41-246.41,0-3.77,0-7.54-.18-11.14A177.53,177.53,0,0,0,518.64,316a176.15,176.15,0,0,1-49.75,13.65,86.53,86.53,0,0,0,38.07-48,175.28,175.28,0,0,1-54.95,21A86.66,86.66,0,0,0,302.22,362a79.22,79.22,0,0,0,2.34,19.76A245.67,245.67,0,0,1,126,291.23,86.55,86.55,0,0,0,153,406.71a85.18,85.18,0,0,1-39.15-10.77V397A86.7,86.7,0,0,0,183.33,482,86.21,86.21,0,0,1,160.52,485a82.57,82.57,0,0,1-16.35-1.62A86.49,86.49,0,0,0,225,543.57a174.12,174.12,0,0,1-107.58,37,158.92,158.92,0,0,1-20.65-1.25,241.32,241.32,0,0,0,132.36,39.15Z" transform="translate(0 -120.94)"/></svg>